# xmcd
#
# Track frame offsets:
#	150
#	20475
#	42510
#	58085
#	70701
#	81194
#	95205
#	107388
#	120532
#	136601
#	150346
#	181159
#	248460
#	293337
#	318632
#
# Disc length: 4785 seconds
#
# Revision: 0
# Processed by: cddbd v1.5.2PL0 Copyright (c) Steve Scherf et al.
# Submitted via: audiograbber 1.83.01
#
DISCID=bb12af0f
DTITLE=Aynsley Dunbar Retaliation - Dr. Dunbar´s Prescription
DYEAR=1967
DGENRE=Blues
TTITLE0=The Fugitive
TTITLE1=Til your Lovin´ makes me blue
TTITLE2=Now that you´ve lost me
TTITLE3=I tried
TTITLE4=Change your low down Ways
TTITLE5=Call my Woman
TTITLE6=The Devil drives
TTITLE7=Low Gear Man
TTITLE8=Tuesday´s Blues
TTITLE9=Mean old World
TTITLE10=Willing to fight
TTITLE11=Willie the Pimp
TTITLE12=It´s your turn
TTITLE13=Days
TTITLE14=Going home
EXTD=
EXTT0=
EXTT1=
EXTT2=
EXTT3=
EXTT4=
EXTT5=
EXTT6=
EXTT7=
EXTT8=
EXTT9=
EXTT10=
EXTT11=
EXTT12=
EXTT13=
EXTT14=
PLAYORDER=
